<mxfile host="65bd71144e" scale="5" border="0">
    <diagram id="qG4pQpgpB0KUzCaDoUKx" name="第 1 页">
        <mxGraphModel dx="614" dy="433" grid="1" gridSize="10" guides="1" tooltips="1" connect="1" arrows="1" fold="1" page="1" pageScale="1" pageWidth="827" pageHeight="1169" math="0" shadow="0">
            <root>
                <mxCell id="0"/>
                <mxCell id="1" parent="0"/>
                <mxCell id="4" value="" style="edgeStyle=none;html=1;fontFamily=宋体;" parent="1" source="2" target="3" edge="1">
                    <mxGeometry relative="1" as="geometry"/>
                </mxCell>
                <mxCell id="2" value="开始" style="rounded=1;whiteSpace=wrap;html=1;fontFamily=宋体;" parent="1" vertex="1">
                    <mxGeometry x="318" y="110" width="50" height="30" as="geometry"/>
                </mxCell>
                <mxCell id="6" value="" style="edgeStyle=none;html=1;fontFamily=宋体;" parent="1" source="3" target="5" edge="1">
                    <mxGeometry relative="1" as="geometry"/>
                </mxCell>
                <mxCell id="3" value="设置段选择子：DS, ES, GS, SS&lt;br&gt;设置栈顶指针" style="rounded=0;whiteSpace=wrap;html=1;fontFamily=宋体;" parent="1" vertex="1">
                    <mxGeometry x="248" y="158" width="190" height="40" as="geometry"/>
                </mxCell>
                <mxCell id="8" value="" style="edgeStyle=none;html=1;fontFamily=宋体;" parent="1" source="5" target="7" edge="1">
                    <mxGeometry relative="1" as="geometry"/>
                </mxCell>
                <mxCell id="5" value="设置定时芯片并初始化中断" style="whiteSpace=wrap;html=1;rounded=0;fontFamily=宋体;" parent="1" vertex="1">
                    <mxGeometry x="258" y="217" width="170" height="30" as="geometry"/>
                </mxCell>
                <mxCell id="10" value="" style="edgeStyle=none;html=1;" parent="1" source="7" target="9" edge="1">
                    <mxGeometry relative="1" as="geometry"/>
                </mxCell>
                <mxCell id="7" value="清屏、输出信息并显示内存信息" style="whiteSpace=wrap;html=1;rounded=0;fontFamily=宋体;" parent="1" vertex="1">
                    <mxGeometry x="248" y="270" width="190" height="30" as="geometry"/>
                </mxCell>
                <mxCell id="9" value="结束" style="rounded=1;whiteSpace=wrap;html=1;" parent="1" vertex="1">
                    <mxGeometry x="318" y="320" width="50" height="30" as="geometry"/>
                </mxCell>
            </root>
        </mxGraphModel>
    </diagram>
</mxfile>